<svg viewBox="575 335.2178 380 66.0643" width="5000" height="869.2671052631579" xmlns="http://www.w3.org/2000/svg" xmlns:xlink="http://www.w3.org/1999/xlink" preserveAspectRatio="none"><defs></defs><style>.aD6z1nYkhcolor {fill:#FFFFFF;fill-opacity:1;}.aD6z1nYkhstrokeColor-str {stroke:#D9D9D9;stroke-opacity:1;}</style><g opacity="1" transform="rotate(0 575 335.2178)">
<svg width="66.0643" height="66.0643" x="575" y="335.2178" version="1.1" preserveAspectRatio="none" viewBox="0 0 96 96">
  <g transform="matrix(1 0 0 1 0 0)" style="fill:#FFFFFF;fill-opacity:1;"><path d="M96,86.372L86.372,96H75.088l20.916-20.916L96,86.372z M57.632,96L96,57.632v11.28L68.916,96H57.632z M40.18,96L96,40.176  V51.46L51.464,96H40.18z M22.724,96L96,22.728v11.28L34.008,96H22.724z M5.268,96L96,5.264v11.28L16.556,95.992L5.268,96z M0,13.992  L13.996,0H25.28L0.004,25.272L0,13.992z M0,31.444L31.448,0h11.284L-0.004,42.736V31.444H0z M60.188,0L0,60.188V48.908L48.904,0  H60.188z M77.645,0L0,77.641V66.359L66.359,0H77.645z M0,83.813L83.813,0h11.279L0,95.092V83.813z M7.824,0L0,7.82V0H7.824z   M92.548,96L96,92.548V96H92.548z"></path></g>
</svg>
</g><g opacity="1" transform="rotate(0 663.0857 335.2178)">
<svg width="291.9143" height="66.0643" x="663.0857" y="335.2178" version="1.1" preserveAspectRatio="none" viewBox="1.56 -28 302.56 68.48">
  <g transform="matrix(1 0 0 1 0 0)" class="aD6z1nYkhcolor"><path id="id-D6z1nYkh17" d="M20.84-28L27.24-28L27.24 0L21.92 0L7.96-17L7.96 0L1.56 0L1.56-28L6.92-28L20.84-11L20.84-28Z M40.32-5.20L55.56-5.20L55.56 0L33.88 0L33.88-28L55.04-28L55.04-22.80L40.32-22.80L40.32-16.72L53.32-16.72L53.32-11.68L40.32-11.68L40.32-5.20Z M85.56 0L78.08 0L71.32-9.72L64.68 0L57.24 0L67.60-14.24L57.76-28L65.12-28L71.56-18.92L77.88-28L84.88-28L75.12-14.48L85.56 0Z M124.08-28L130.28-28L121.12 0L114.16 0L108.00-18.96L101.64 0L94.72 0L85.52-28L92.24-28L98.56-8.32L105.16-28L111.16-28L117.56-8.16L124.08-28Z M133.88 0L133.88-28L140.36-28L140.36 0L133.88 0Z M166.28-28L172.68-28L172.68 0L167.36 0L153.40-17L153.40 0L147 0L147-28L152.36-28L166.28-11L166.28-28Z M179.32 0L179.32-28L192.04-28Q196.60-28 200.10-26.26Q203.60-24.52 205.54-21.36Q207.48-18.20 207.48-14L207.48-14Q207.48-9.80 205.54-6.64Q203.60-3.48 200.10-1.74Q196.60 0 192.04 0L192.04 0L179.32 0ZM185.80-5.32L191.72-5.32Q195.92-5.32 198.42-7.66Q200.92-10 200.92-14L200.92-14Q200.92-18 198.42-20.34Q195.92-22.68 191.72-22.68L191.72-22.68L185.80-22.68L185.80-5.32Z M16.72 40.48Q12.44 40.48 8.98 38.62Q5.52 36.76 3.54 33.46Q1.56 30.16 1.56 26L1.56 26Q1.56 21.84 3.54 18.54Q5.52 15.24 8.98 13.38Q12.44 11.52 16.76 11.52L16.76 11.52Q20.40 11.52 23.34 12.80Q26.28 14.08 28.28 16.48L28.28 16.48L24.12 20.32Q21.28 17.04 17.08 17.04L17.08 17.04Q14.48 17.04 12.44 18.18Q10.40 19.32 9.26 21.36Q8.12 23.40 8.12 26L8.12 26Q8.12 28.60 9.26 30.64Q10.40 32.68 12.44 33.82Q14.48 34.96 17.08 34.96L17.08 34.96Q21.28 34.96 24.12 31.64L24.12 31.64L28.28 35.48Q26.28 37.92 23.32 39.20Q20.36 40.48 16.72 40.48L16.72 40.48Z M45.60 40.48Q41.24 40.48 37.74 38.60Q34.24 36.72 32.26 33.42Q30.28 30.12 30.28 26L30.28 26Q30.28 21.88 32.26 18.58Q34.24 15.28 37.74 13.40Q41.24 11.52 45.60 11.52L45.60 11.52Q49.96 11.52 53.44 13.40Q56.92 15.28 58.92 18.58Q60.92 21.88 60.92 26L60.92 26Q60.92 30.12 58.92 33.42Q56.92 36.72 53.44 38.60Q49.96 40.48 45.60 40.48L45.60 40.48ZM45.60 34.96Q48.08 34.96 50.08 33.82Q52.08 32.68 53.22 30.64Q54.36 28.60 54.36 26L54.36 26Q54.36 23.40 53.22 21.36Q52.08 19.32 50.08 18.18Q48.08 17.04 45.60 17.04L45.60 17.04Q43.12 17.04 41.12 18.18Q39.12 19.32 37.98 21.36Q36.84 23.40 36.84 26L36.84 26Q36.84 28.60 37.98 30.64Q39.12 32.68 41.12 33.82Q43.12 34.96 45.60 34.96L45.60 34.96Z M97.36 40L91.28 40L91.24 23.20L83 37.04L80.08 37.04L71.88 23.56L71.88 40L65.80 40L65.80 12L71.16 12L81.64 29.40L91.96 12L97.28 12L97.36 40Z M116.12 12Q119.84 12 122.58 13.24Q125.32 14.48 126.80 16.76Q128.28 19.04 128.28 22.16L128.28 22.16Q128.28 25.24 126.80 27.54Q125.32 29.84 122.58 31.06Q119.84 32.28 116.12 32.28L116.12 32.28L110.48 32.28L110.48 40L104 40L104 12L116.12 12ZM115.76 27Q118.68 27 120.20 25.74Q121.72 24.48 121.72 22.16L121.72 22.16Q121.72 19.80 120.20 18.54Q118.68 17.28 115.76 17.28L115.76 17.28L110.48 17.28L110.48 27L115.76 27Z M146.84 40.48Q142.48 40.48 138.98 38.60Q135.48 36.72 133.50 33.42Q131.52 30.12 131.52 26L131.52 26Q131.52 21.88 133.50 18.58Q135.48 15.28 138.98 13.40Q142.48 11.52 146.84 11.52L146.84 11.52Q151.20 11.52 154.68 13.40Q158.16 15.28 160.16 18.58Q162.16 21.88 162.16 26L162.16 26Q162.16 30.12 160.16 33.42Q158.16 36.72 154.68 38.60Q151.20 40.48 146.84 40.48L146.84 40.48ZM146.84 34.96Q149.32 34.96 151.32 33.82Q153.32 32.68 154.46 30.64Q155.60 28.60 155.60 26L155.60 26Q155.60 23.40 154.46 21.36Q153.32 19.32 151.32 18.18Q149.32 17.04 146.84 17.04L146.84 17.04Q144.36 17.04 142.36 18.18Q140.36 19.32 139.22 21.36Q138.08 23.40 138.08 26L138.08 26Q138.08 28.60 139.22 30.64Q140.36 32.68 142.36 33.82Q144.36 34.96 146.84 34.96L146.84 34.96Z M186.32 12L192.72 12L192.72 40L187.40 40L173.44 23L173.44 40L167.04 40L167.04 12L172.40 12L186.32 29L186.32 12Z M205.80 34.80L221.04 34.80L221.04 40L199.36 40L199.36 12L220.52 12L220.52 17.20L205.80 17.20L205.80 23.28L218.80 23.28L218.80 28.32L205.80 28.32L205.80 34.80Z M245.48 12L251.88 12L251.88 40L246.56 40L232.60 23L232.60 40L226.20 40L226.20 12L231.56 12L245.48 29L245.48 12Z M264.32 40L264.32 17.28L255.36 17.28L255.36 12L279.76 12L279.76 17.28L270.80 17.28L270.80 40L264.32 40Z M292.24 40.48Q288.92 40.48 285.82 39.58Q282.72 38.68 280.84 37.24L280.84 37.24L283.04 32.36Q284.84 33.68 287.32 34.48Q289.80 35.28 292.28 35.28L292.28 35.28Q295.04 35.28 296.36 34.46Q297.68 33.64 297.68 32.28L297.68 32.28Q297.68 31.28 296.90 30.62Q296.12 29.96 294.90 29.56Q293.68 29.16 291.60 28.68L291.60 28.68Q288.40 27.92 286.36 27.16Q284.32 26.40 282.86 24.72Q281.40 23.04 281.40 20.24L281.40 20.24Q281.40 17.80 282.72 15.82Q284.04 13.84 286.70 12.68Q289.36 11.52 293.20 11.52L293.20 11.52Q295.88 11.52 298.44 12.16Q301 12.80 302.92 14L302.92 14L300.92 18.92Q297.04 16.72 293.16 16.72L293.16 16.72Q290.44 16.72 289.14 17.60Q287.84 18.48 287.84 19.92L287.84 19.92Q287.84 21.36 289.34 22.06Q290.84 22.76 293.92 23.44L293.92 23.44Q297.12 24.20 299.16 24.96Q301.20 25.72 302.66 27.36Q304.12 29 304.12 31.80L304.12 31.80Q304.12 34.20 302.78 36.18Q301.44 38.16 298.76 39.32Q296.08 40.48 292.24 40.48L292.24 40.48Z"/></g>
</svg>
</g></svg>